%TF.GenerationSoftware,KiCad,Pcbnew,9.0.4*%
%TF.CreationDate,2025-08-31T04:42:25+08:00*%
%TF.ProjectId,Magdamit_EE_201L_Project,4d616764-616d-4697-945f-45455f323031,rev?*%
%TF.SameCoordinates,Original*%
%TF.FileFunction,Soldermask,Top*%
%TF.FilePolarity,Negative*%
%FSLAX46Y46*%
G04 Gerber Fmt 4.6, Leading zero omitted, Abs format (unit mm)*
G04 Created by KiCad (PCBNEW 9.0.4) date 2025-08-31 04:42:25*
%MOMM*%
%LPD*%
G01*
G04 APERTURE LIST*
G04 Aperture macros list*
%AMRoundRect*
0 Rectangle with rounded corners*
0 $1 Rounding radius*
0 $2 $3 $4 $5 $6 $7 $8 $9 X,Y pos of 4 corners*
0 Add a 4 corners polygon primitive as box body*
4,1,4,$2,$3,$4,$5,$6,$7,$8,$9,$2,$3,0*
0 Add four circle primitives for the rounded corners*
1,1,$1+$1,$2,$3*
1,1,$1+$1,$4,$5*
1,1,$1+$1,$6,$7*
1,1,$1+$1,$8,$9*
0 Add four rect primitives between the rounded corners*
20,1,$1+$1,$2,$3,$4,$5,0*
20,1,$1+$1,$4,$5,$6,$7,0*
20,1,$1+$1,$6,$7,$8,$9,0*
20,1,$1+$1,$8,$9,$2,$3,0*%
G04 Aperture macros list end*
%ADD10C,2.000000*%
%ADD11C,1.600000*%
%ADD12RoundRect,0.250000X-1.050000X-1.050000X1.050000X-1.050000X1.050000X1.050000X-1.050000X1.050000X0*%
%ADD13C,2.600000*%
%ADD14RoundRect,0.250000X-0.450000X-0.450000X0.450000X-0.450000X0.450000X0.450000X-0.450000X0.450000X0*%
%ADD15C,1.400000*%
%ADD16C,2.700000*%
%ADD17C,3.000000*%
%ADD18RoundRect,0.250000X-0.450000X0.450000X-0.450000X-0.450000X0.450000X-0.450000X0.450000X0.450000X0*%
G04 APERTURE END LIST*
D10*
%TO.C,+TP_R6*%
X99190000Y-55960000D03*
X99190000Y-58500000D03*
%TD*%
D11*
%TO.C,R10*%
X87380000Y-97000000D03*
X95000000Y-97000000D03*
%TD*%
D12*
%TO.C,J2*%
X76690000Y-91730000D03*
D13*
X81770000Y-91730000D03*
%TD*%
D14*
%TO.C,SW_R9*%
X103690000Y-85500000D03*
D15*
X106190000Y-85500000D03*
X108690000Y-85500000D03*
X108690000Y-88800000D03*
X106190000Y-88800000D03*
X103690000Y-88800000D03*
%TD*%
D11*
%TO.C,R13*%
X122190000Y-80050000D03*
X129810000Y-80050000D03*
%TD*%
D10*
%TO.C,-TP_R12*%
X133357500Y-71750000D03*
X133357500Y-74290000D03*
%TD*%
%TO.C,-TP_R4*%
X56730000Y-85500000D03*
X59270000Y-85500000D03*
%TD*%
%TO.C,+TP_R5*%
X50730000Y-95500000D03*
X53270000Y-95500000D03*
%TD*%
%TO.C,-TP_R3*%
X56500000Y-75500000D03*
X59040000Y-75500000D03*
%TD*%
D14*
%TO.C,SW_R6*%
X103690000Y-55500000D03*
D15*
X106190000Y-55500000D03*
X108690000Y-55500000D03*
X108690000Y-58800000D03*
X106190000Y-58800000D03*
X103690000Y-58800000D03*
%TD*%
D11*
%TO.C,R5*%
X51190000Y-91000000D03*
X58810000Y-91000000D03*
%TD*%
D14*
%TO.C,SW_R8*%
X103690000Y-75500000D03*
D15*
X106190000Y-75500000D03*
X108690000Y-75500000D03*
X108690000Y-78800000D03*
X106190000Y-78800000D03*
X103690000Y-78800000D03*
%TD*%
D10*
%TO.C,-TP_R1*%
X56230000Y-55500000D03*
X58770000Y-55500000D03*
%TD*%
%TO.C,+TP_R12*%
X133357500Y-65980000D03*
X133357500Y-68520000D03*
%TD*%
D14*
%TO.C,SW_R14*%
X139500000Y-85357500D03*
D15*
X142000000Y-85357500D03*
X144500000Y-85357500D03*
X144500000Y-88657500D03*
X142000000Y-88657500D03*
X139500000Y-88657500D03*
%TD*%
D16*
%TO.C,F2*%
X79190000Y-67730000D03*
D17*
X79190000Y-56480000D03*
X79190000Y-78980000D03*
%TD*%
D18*
%TO.C,SW_11_12*%
X146000000Y-53250000D03*
D15*
X146000000Y-55750000D03*
X146000000Y-58250000D03*
X142700000Y-58250000D03*
X142700000Y-55750000D03*
X142700000Y-53250000D03*
%TD*%
D10*
%TO.C,TP17*%
X107420000Y-50230000D03*
X109960000Y-50230000D03*
%TD*%
%TO.C,+TP_R9*%
X99190000Y-86000000D03*
X99190000Y-88540000D03*
%TD*%
D11*
%TO.C,R6*%
X87380000Y-57000000D03*
X95000000Y-57000000D03*
%TD*%
D10*
%TO.C,+TP_R7*%
X99190000Y-65730000D03*
X99190000Y-68270000D03*
%TD*%
%TO.C,-TP*%
X86190000Y-51730000D03*
X88730000Y-51730000D03*
%TD*%
%TO.C,+TP_R13-R15*%
X143730000Y-101500000D03*
X146270000Y-101500000D03*
%TD*%
D12*
%TO.C,J3*%
X132455000Y-104172500D03*
D13*
X137535000Y-104172500D03*
%TD*%
D10*
%TO.C,-TP_R2*%
X56230000Y-65500000D03*
X58770000Y-65500000D03*
%TD*%
D18*
%TO.C,SW_12_T_R12-15*%
X146142500Y-67250000D03*
D15*
X146142500Y-69750000D03*
X146142500Y-72250000D03*
X142842500Y-72250000D03*
X142842500Y-69750000D03*
X142842500Y-67250000D03*
%TD*%
D11*
%TO.C,R15*%
X122190000Y-94250000D03*
X129810000Y-94250000D03*
%TD*%
D18*
%TO.C,SW_R2_R3*%
X66642500Y-63000000D03*
D15*
X66642500Y-65500000D03*
X66642500Y-68000000D03*
X63342500Y-68000000D03*
X63342500Y-65500000D03*
X63342500Y-63000000D03*
%TD*%
D10*
%TO.C,+TP_R11*%
X133357500Y-50980000D03*
X133357500Y-53520000D03*
%TD*%
D11*
%TO.C,R7*%
X87380000Y-67000000D03*
X95000000Y-67000000D03*
%TD*%
D10*
%TO.C,-TP*%
X123960000Y-101500000D03*
X126500000Y-101500000D03*
%TD*%
D11*
%TO.C,R3*%
X51190000Y-71000000D03*
X58810000Y-71000000D03*
%TD*%
D14*
%TO.C,SW_R15*%
X139500000Y-92500000D03*
D15*
X142000000Y-92500000D03*
X144500000Y-92500000D03*
X144500000Y-95800000D03*
X142000000Y-95800000D03*
X139500000Y-95800000D03*
%TD*%
D10*
%TO.C,+TP_R8*%
X99190000Y-75730000D03*
X99190000Y-78270000D03*
%TD*%
D12*
%TO.C,J1*%
X37455000Y-91672500D03*
D13*
X42535000Y-91672500D03*
%TD*%
D10*
%TO.C,+TP_R14*%
X134500000Y-85837500D03*
X134500000Y-88377500D03*
%TD*%
%TO.C,-TP_R11*%
X133357500Y-56750000D03*
X133357500Y-59290000D03*
%TD*%
%TO.C,+TP_R13*%
X134500000Y-78550000D03*
X134500000Y-81090000D03*
%TD*%
%TO.C,+TP_R15*%
X134500000Y-92750000D03*
X134500000Y-95290000D03*
%TD*%
%TO.C,+TP_R2*%
X50230000Y-65500000D03*
X52770000Y-65500000D03*
%TD*%
D16*
%TO.C,F1*%
X40000000Y-65500000D03*
D17*
X40000000Y-54250000D03*
X40000000Y-76750000D03*
%TD*%
D11*
%TO.C,R11*%
X137357500Y-51440000D03*
X137357500Y-59060000D03*
%TD*%
D10*
%TO.C,+TP_R1*%
X50230000Y-55500000D03*
X52770000Y-55500000D03*
%TD*%
D14*
%TO.C,SW_R7*%
X103690000Y-65500000D03*
D15*
X106190000Y-65500000D03*
X108690000Y-65500000D03*
X108690000Y-68800000D03*
X106190000Y-68800000D03*
X103690000Y-68800000D03*
%TD*%
D18*
%TO.C,SW_R1_R2*%
X66642500Y-52500000D03*
D15*
X66642500Y-55000000D03*
X66642500Y-57500000D03*
X63342500Y-57500000D03*
X63342500Y-55000000D03*
X63342500Y-52500000D03*
%TD*%
D11*
%TO.C,R2*%
X51190000Y-61000000D03*
X58810000Y-61000000D03*
%TD*%
D16*
%TO.C,F3*%
X123000000Y-62250000D03*
D17*
X123000000Y-51000000D03*
X123000000Y-73500000D03*
%TD*%
D10*
%TO.C,+TP_R3*%
X50460000Y-75500000D03*
X53000000Y-75500000D03*
%TD*%
%TO.C,+TP_R10*%
X99190000Y-96000000D03*
X99190000Y-98540000D03*
%TD*%
D14*
%TO.C,SW_R13*%
X139500000Y-78000000D03*
D15*
X142000000Y-78000000D03*
X144500000Y-78000000D03*
X144500000Y-81300000D03*
X142000000Y-81300000D03*
X139500000Y-81300000D03*
%TD*%
D11*
%TO.C,R9*%
X87380000Y-87000000D03*
X95000000Y-87000000D03*
%TD*%
%TO.C,R8*%
X87380000Y-77000000D03*
X95000000Y-77000000D03*
%TD*%
%TO.C,R4*%
X51190000Y-81000000D03*
X58810000Y-81000000D03*
%TD*%
D18*
%TO.C,SW_R4_R5*%
X66800000Y-84000000D03*
D15*
X66800000Y-86500000D03*
X66800000Y-89000000D03*
X63500000Y-89000000D03*
X63500000Y-86500000D03*
X63500000Y-84000000D03*
%TD*%
D11*
%TO.C,R14*%
X122190000Y-87607500D03*
X129810000Y-87607500D03*
%TD*%
%TO.C,R12*%
X137357500Y-66440000D03*
X137357500Y-74060000D03*
%TD*%
D18*
%TO.C,SW_R3_R4*%
X66642500Y-73500000D03*
D15*
X66642500Y-76000000D03*
X66642500Y-78500000D03*
X63342500Y-78500000D03*
X63342500Y-76000000D03*
X63342500Y-73500000D03*
%TD*%
D10*
%TO.C,+TP_R4*%
X50730000Y-85500000D03*
X53270000Y-85500000D03*
%TD*%
D14*
%TO.C,SW_R10*%
X103547500Y-95500000D03*
D15*
X106047500Y-95500000D03*
X108547500Y-95500000D03*
X108547500Y-98800000D03*
X106047500Y-98800000D03*
X103547500Y-98800000D03*
%TD*%
D10*
%TO.C,-TP_R5*%
X56730000Y-95500000D03*
X59270000Y-95500000D03*
%TD*%
D11*
%TO.C,R1*%
X51190000Y-51000000D03*
X58810000Y-51000000D03*
%TD*%
M02*
