M48
; DRILL file {KiCad 9.0.4} date 2025-08-31T04:42:40+0800
; FORMAT={-:-/ absolute / metric / decimal}
; #@! TF.CreationDate,2025-08-31T04:42:40+08:00
; #@! TF.GenerationSoftware,Kicad,Pcbnew,9.0.4
; #@! TF.FileFunction,Plated,1,2,PTH
FMAT,2
METRIC
; #@! TA.AperFunction,Plated,PTH,ComponentDrill
T1C0.800
; #@! TA.AperFunction,Plated,PTH,ComponentDrill
T2C0.900
; #@! TA.AperFunction,Plated,PTH,ComponentDrill
T3C1.000
; #@! TA.AperFunction,Plated,PTH,ComponentDrill
T4C1.300
%
G90
G05
T1
X51.19Y-51.0
X51.19Y-61.0
X51.19Y-71.0
X51.19Y-81.0
X51.19Y-91.0
X58.81Y-51.0
X58.81Y-61.0
X58.81Y-71.0
X58.81Y-81.0
X58.81Y-91.0
X87.38Y-57.0
X87.38Y-67.0
X87.38Y-77.0
X87.38Y-87.0
X87.38Y-97.0
X95.0Y-57.0
X95.0Y-67.0
X95.0Y-77.0
X95.0Y-87.0
X95.0Y-97.0
X122.19Y-80.05
X122.19Y-87.608
X122.19Y-94.25
X129.81Y-80.05
X129.81Y-87.608
X129.81Y-94.25
X137.357Y-51.44
X137.357Y-59.06
X137.357Y-66.44
X137.357Y-74.06
T2
X63.342Y-52.5
X63.342Y-55.0
X63.342Y-57.5
X63.342Y-63.0
X63.342Y-65.5
X63.342Y-68.0
X63.342Y-73.5
X63.342Y-76.0
X63.342Y-78.5
X63.5Y-84.0
X63.5Y-86.5
X63.5Y-89.0
X66.642Y-52.5
X66.642Y-55.0
X66.642Y-57.5
X66.642Y-63.0
X66.642Y-65.5
X66.642Y-68.0
X66.642Y-73.5
X66.642Y-76.0
X66.642Y-78.5
X66.8Y-84.0
X66.8Y-86.5
X66.8Y-89.0
X103.547Y-95.5
X103.547Y-98.8
X103.69Y-55.5
X103.69Y-58.8
X103.69Y-65.5
X103.69Y-68.8
X103.69Y-75.5
X103.69Y-78.8
X103.69Y-85.5
X103.69Y-88.8
X106.047Y-95.5
X106.047Y-98.8
X106.19Y-55.5
X106.19Y-58.8
X106.19Y-65.5
X106.19Y-68.8
X106.19Y-75.5
X106.19Y-78.8
X106.19Y-85.5
X106.19Y-88.8
X108.547Y-95.5
X108.547Y-98.8
X108.69Y-55.5
X108.69Y-58.8
X108.69Y-65.5
X108.69Y-68.8
X108.69Y-75.5
X108.69Y-78.8
X108.69Y-85.5
X108.69Y-88.8
X139.5Y-78.0
X139.5Y-81.3
X139.5Y-85.358
X139.5Y-88.657
X139.5Y-92.5
X139.5Y-95.8
X142.0Y-78.0
X142.0Y-81.3
X142.0Y-85.358
X142.0Y-88.657
X142.0Y-92.5
X142.0Y-95.8
X142.7Y-53.25
X142.7Y-55.75
X142.7Y-58.25
X142.843Y-67.25
X142.843Y-69.75
X142.843Y-72.25
X144.5Y-78.0
X144.5Y-81.3
X144.5Y-85.358
X144.5Y-88.657
X144.5Y-92.5
X144.5Y-95.8
X146.0Y-53.25
X146.0Y-55.75
X146.0Y-58.25
X146.142Y-67.25
X146.142Y-69.75
X146.142Y-72.25
T3
X50.23Y-55.5
X50.23Y-65.5
X50.46Y-75.5
X50.73Y-85.5
X50.73Y-95.5
X52.77Y-55.5
X52.77Y-65.5
X53.0Y-75.5
X53.27Y-85.5
X53.27Y-95.5
X56.23Y-55.5
X56.23Y-65.5
X56.5Y-75.5
X56.73Y-85.5
X56.73Y-95.5
X58.77Y-55.5
X58.77Y-65.5
X59.04Y-75.5
X59.27Y-85.5
X59.27Y-95.5
X86.19Y-51.73
X88.73Y-51.73
X99.19Y-55.96
X99.19Y-58.5
X99.19Y-65.73
X99.19Y-68.27
X99.19Y-75.73
X99.19Y-78.27
X99.19Y-86.0
X99.19Y-88.54
X99.19Y-96.0
X99.19Y-98.54
X107.42Y-50.23
X109.96Y-50.23
X123.96Y-101.5
X126.5Y-101.5
X133.357Y-50.98
X133.357Y-53.52
X133.357Y-56.75
X133.357Y-59.29
X133.357Y-65.98
X133.357Y-68.52
X133.357Y-71.75
X133.357Y-74.29
X134.5Y-78.55
X134.5Y-81.09
X134.5Y-85.837
X134.5Y-88.377
X134.5Y-92.75
X134.5Y-95.29
X143.73Y-101.5
X146.27Y-101.5
T4
X37.455Y-91.672
X40.0Y-54.25
X40.0Y-76.75
X42.535Y-91.672
X76.69Y-91.73
X79.19Y-56.48
X79.19Y-78.98
X81.77Y-91.73
X123.0Y-51.0
X123.0Y-73.5
X132.455Y-104.172
X137.535Y-104.172
M30
