%TF.GenerationSoftware,KiCad,Pcbnew,9.0.4*%
%TF.CreationDate,2025-08-31T04:42:25+08:00*%
%TF.ProjectId,Magdamit_EE_201L_Project,4d616764-616d-4697-945f-45455f323031,rev?*%
%TF.SameCoordinates,Original*%
%TF.FileFunction,Copper,L2,Bot*%
%TF.FilePolarity,Positive*%
%FSLAX46Y46*%
G04 Gerber Fmt 4.6, Leading zero omitted, Abs format (unit mm)*
G04 Created by KiCad (PCBNEW 9.0.4) date 2025-08-31 04:42:25*
%MOMM*%
%LPD*%
G01*
G04 APERTURE LIST*
G04 Aperture macros list*
%AMRoundRect*
0 Rectangle with rounded corners*
0 $1 Rounding radius*
0 $2 $3 $4 $5 $6 $7 $8 $9 X,Y pos of 4 corners*
0 Add a 4 corners polygon primitive as box body*
4,1,4,$2,$3,$4,$5,$6,$7,$8,$9,$2,$3,0*
0 Add four circle primitives for the rounded corners*
1,1,$1+$1,$2,$3*
1,1,$1+$1,$4,$5*
1,1,$1+$1,$6,$7*
1,1,$1+$1,$8,$9*
0 Add four rect primitives between the rounded corners*
20,1,$1+$1,$2,$3,$4,$5,0*
20,1,$1+$1,$4,$5,$6,$7,0*
20,1,$1+$1,$6,$7,$8,$9,0*
20,1,$1+$1,$8,$9,$2,$3,0*%
G04 Aperture macros list end*
%TA.AperFunction,ComponentPad*%
%ADD10C,2.000000*%
%TD*%
%TA.AperFunction,ComponentPad*%
%ADD11C,1.600000*%
%TD*%
%TA.AperFunction,ComponentPad*%
%ADD12RoundRect,0.250000X-1.050000X-1.050000X1.050000X-1.050000X1.050000X1.050000X-1.050000X1.050000X0*%
%TD*%
%TA.AperFunction,ComponentPad*%
%ADD13C,2.600000*%
%TD*%
%TA.AperFunction,ComponentPad*%
%ADD14RoundRect,0.250000X-0.450000X-0.450000X0.450000X-0.450000X0.450000X0.450000X-0.450000X0.450000X0*%
%TD*%
%TA.AperFunction,ComponentPad*%
%ADD15C,1.400000*%
%TD*%
%TA.AperFunction,ComponentPad*%
%ADD16C,3.000000*%
%TD*%
%TA.AperFunction,ComponentPad*%
%ADD17RoundRect,0.250000X-0.450000X0.450000X-0.450000X-0.450000X0.450000X-0.450000X0.450000X0.450000X0*%
%TD*%
%TA.AperFunction,Conductor*%
%ADD18C,1.000000*%
%TD*%
G04 APERTURE END LIST*
D10*
%TO.P,+TP_R6,1,1*%
%TO.N,Net-(SW5-A)*%
X99190000Y-55960000D03*
X99190000Y-58500000D03*
%TD*%
D11*
%TO.P,R10,1*%
%TO.N,Net-(J2-Pin_2)*%
X87380000Y-97000000D03*
%TO.P,R10,2*%
%TO.N,Net-(SW9-A)*%
X95000000Y-97000000D03*
%TD*%
D12*
%TO.P,J2,1,Pin_1*%
%TO.N,Net-(J2-Pin_1)*%
X76690000Y-91730000D03*
D13*
%TO.P,J2,2,Pin_2*%
%TO.N,Net-(J2-Pin_2)*%
X81770000Y-91730000D03*
%TD*%
D14*
%TO.P,SW_R9,1,A*%
%TO.N,Net-(SW8-A)*%
X103690000Y-85500000D03*
D15*
%TO.P,SW_R9,2,B*%
%TO.N,Net-(SW5-B)*%
X106190000Y-85500000D03*
%TO.P,SW_R9,3*%
%TO.N,N/C*%
X108690000Y-85500000D03*
%TO.P,SW_R9,4*%
X108690000Y-88800000D03*
%TO.P,SW_R9,5*%
X106190000Y-88800000D03*
%TO.P,SW_R9,6*%
X103690000Y-88800000D03*
%TD*%
D11*
%TO.P,R13,1*%
%TO.N,Net-(J3-Pin_2)*%
X122190000Y-80050000D03*
%TO.P,R13,2*%
%TO.N,Net-(SW12-A)*%
X129810000Y-80050000D03*
%TD*%
D10*
%TO.P,-TP_R12,1,1*%
%TO.N,Net-(SW11-A)*%
X133357500Y-71750000D03*
X133357500Y-74290000D03*
%TD*%
%TO.P,-TP_R4,1,1*%
%TO.N,Net-(SW4-A)*%
X56730000Y-85500000D03*
X59270000Y-85500000D03*
%TD*%
%TO.P,+TP_R5,1,1*%
%TO.N,Net-(SW4-B)*%
X50730000Y-95500000D03*
X53270000Y-95500000D03*
%TD*%
%TO.P,-TP_R3,1,1*%
%TO.N,Net-(SW3-A)*%
X56500000Y-75500000D03*
X59040000Y-75500000D03*
%TD*%
D14*
%TO.P,SW_R6,1,A*%
%TO.N,Net-(SW5-A)*%
X103690000Y-55500000D03*
D15*
%TO.P,SW_R6,2,B*%
%TO.N,Net-(SW5-B)*%
X106190000Y-55500000D03*
%TO.P,SW_R6,3*%
%TO.N,N/C*%
X108690000Y-55500000D03*
%TO.P,SW_R6,4*%
X108690000Y-58800000D03*
%TO.P,SW_R6,5*%
X106190000Y-58800000D03*
%TO.P,SW_R6,6*%
X103690000Y-58800000D03*
%TD*%
D11*
%TO.P,R5,1*%
%TO.N,Net-(SW4-B)*%
X51190000Y-91000000D03*
%TO.P,R5,2*%
%TO.N,Net-(J1-Pin_2)*%
X58810000Y-91000000D03*
%TD*%
D14*
%TO.P,SW_R8,1,A*%
%TO.N,Net-(SW7-A)*%
X103690000Y-75500000D03*
D15*
%TO.P,SW_R8,2,B*%
%TO.N,Net-(SW5-B)*%
X106190000Y-75500000D03*
%TO.P,SW_R8,3*%
%TO.N,N/C*%
X108690000Y-75500000D03*
%TO.P,SW_R8,4*%
X108690000Y-78800000D03*
%TO.P,SW_R8,5*%
X106190000Y-78800000D03*
%TO.P,SW_R8,6*%
X103690000Y-78800000D03*
%TD*%
D10*
%TO.P,-TP_R1,1,1*%
%TO.N,Net-(SW1-A)*%
X56230000Y-55500000D03*
X58770000Y-55500000D03*
%TD*%
%TO.P,+TP_R12,1,1*%
%TO.N,Net-(SW10-B)*%
X133357500Y-65980000D03*
X133357500Y-68520000D03*
%TD*%
D14*
%TO.P,SW_R14,1,A*%
%TO.N,Net-(SW13-A)*%
X139500000Y-85357500D03*
D15*
%TO.P,SW_R14,2,B*%
%TO.N,Net-(SW11-B)*%
X142000000Y-85357500D03*
%TO.P,SW_R14,3*%
%TO.N,N/C*%
X144500000Y-85357500D03*
%TO.P,SW_R14,4*%
X144500000Y-88657500D03*
%TO.P,SW_R14,5*%
X142000000Y-88657500D03*
%TO.P,SW_R14,6*%
X139500000Y-88657500D03*
%TD*%
D16*
%TO.P,F2,1*%
%TO.N,Net-(SW5-B)*%
X79190000Y-56480000D03*
%TO.P,F2,2*%
%TO.N,Net-(J2-Pin_1)*%
X79190000Y-78980000D03*
%TD*%
D17*
%TO.P,SW_11_12,1,A*%
%TO.N,Net-(SW10-A)*%
X146000000Y-53250000D03*
D15*
%TO.P,SW_11_12,2,B*%
%TO.N,Net-(SW10-B)*%
X146000000Y-55750000D03*
%TO.P,SW_11_12,3*%
%TO.N,N/C*%
X146000000Y-58250000D03*
%TO.P,SW_11_12,4*%
X142700000Y-58250000D03*
%TO.P,SW_11_12,5*%
X142700000Y-55750000D03*
%TO.P,SW_11_12,6*%
X142700000Y-53250000D03*
%TD*%
D10*
%TO.P,TP17,1,1*%
%TO.N,Net-(SW5-B)*%
X107420000Y-50230000D03*
X109960000Y-50230000D03*
%TD*%
%TO.P,+TP_R9,1,1*%
%TO.N,Net-(SW8-A)*%
X99190000Y-86000000D03*
X99190000Y-88540000D03*
%TD*%
D11*
%TO.P,R6,1*%
%TO.N,Net-(J2-Pin_2)*%
X87380000Y-57000000D03*
%TO.P,R6,2*%
%TO.N,Net-(SW5-A)*%
X95000000Y-57000000D03*
%TD*%
D10*
%TO.P,+TP_R7,1,1*%
%TO.N,Net-(SW6-A)*%
X99190000Y-65730000D03*
X99190000Y-68270000D03*
%TD*%
%TO.P,-TP,1,1*%
%TO.N,Net-(J2-Pin_2)*%
X86190000Y-51730000D03*
X88730000Y-51730000D03*
%TD*%
%TO.P,+TP_R13-R15,1,1*%
%TO.N,Net-(SW11-B)*%
X143730000Y-101500000D03*
X146270000Y-101500000D03*
%TD*%
D12*
%TO.P,J3,1,Pin_1*%
%TO.N,Net-(J3-Pin_1)*%
X132455000Y-104172500D03*
D13*
%TO.P,J3,2,Pin_2*%
%TO.N,Net-(J3-Pin_2)*%
X137535000Y-104172500D03*
%TD*%
D10*
%TO.P,-TP_R2,1,1*%
%TO.N,Net-(SW2-A)*%
X56230000Y-65500000D03*
X58770000Y-65500000D03*
%TD*%
D17*
%TO.P,SW_12_T_R12-15,1,A*%
%TO.N,Net-(SW11-A)*%
X146142500Y-67250000D03*
D15*
%TO.P,SW_12_T_R12-15,2,B*%
%TO.N,Net-(SW11-B)*%
X146142500Y-69750000D03*
%TO.P,SW_12_T_R12-15,3*%
%TO.N,N/C*%
X146142500Y-72250000D03*
%TO.P,SW_12_T_R12-15,4*%
X142842500Y-72250000D03*
%TO.P,SW_12_T_R12-15,5*%
X142842500Y-69750000D03*
%TO.P,SW_12_T_R12-15,6*%
X142842500Y-67250000D03*
%TD*%
D11*
%TO.P,R15,1*%
%TO.N,Net-(J3-Pin_2)*%
X122190000Y-94250000D03*
%TO.P,R15,2*%
%TO.N,Net-(SW14-A)*%
X129810000Y-94250000D03*
%TD*%
D17*
%TO.P,SW_R2_R3,1,A*%
%TO.N,Net-(SW2-A)*%
X66642500Y-63000000D03*
D15*
%TO.P,SW_R2_R3,2,B*%
%TO.N,Net-(SW2-B)*%
X66642500Y-65500000D03*
%TO.P,SW_R2_R3,3*%
%TO.N,N/C*%
X66642500Y-68000000D03*
%TO.P,SW_R2_R3,4*%
X63342500Y-68000000D03*
%TO.P,SW_R2_R3,5*%
X63342500Y-65500000D03*
%TO.P,SW_R2_R3,6*%
X63342500Y-63000000D03*
%TD*%
D10*
%TO.P,+TP_R11,1,1*%
%TO.N,Net-(F3-Pad1)*%
X133357500Y-50980000D03*
X133357500Y-53520000D03*
%TD*%
D11*
%TO.P,R7,1*%
%TO.N,Net-(J2-Pin_2)*%
X87380000Y-67000000D03*
%TO.P,R7,2*%
%TO.N,Net-(SW6-A)*%
X95000000Y-67000000D03*
%TD*%
D10*
%TO.P,-TP,1,1*%
%TO.N,Net-(J3-Pin_2)*%
X123960000Y-101500000D03*
X126500000Y-101500000D03*
%TD*%
D11*
%TO.P,R3,1*%
%TO.N,Net-(SW2-B)*%
X51190000Y-71000000D03*
%TO.P,R3,2*%
%TO.N,Net-(SW3-A)*%
X58810000Y-71000000D03*
%TD*%
D14*
%TO.P,SW_R15,1,A*%
%TO.N,Net-(SW14-A)*%
X139500000Y-92500000D03*
D15*
%TO.P,SW_R15,2,B*%
%TO.N,Net-(SW11-B)*%
X142000000Y-92500000D03*
%TO.P,SW_R15,3*%
%TO.N,N/C*%
X144500000Y-92500000D03*
%TO.P,SW_R15,4*%
X144500000Y-95800000D03*
%TO.P,SW_R15,5*%
X142000000Y-95800000D03*
%TO.P,SW_R15,6*%
X139500000Y-95800000D03*
%TD*%
D10*
%TO.P,+TP_R8,1,1*%
%TO.N,Net-(SW7-A)*%
X99190000Y-75730000D03*
X99190000Y-78270000D03*
%TD*%
D12*
%TO.P,J1,1,Pin_1*%
%TO.N,Net-(J1-Pin_1)*%
X37455000Y-91672500D03*
D13*
%TO.P,J1,2,Pin_2*%
%TO.N,Net-(J1-Pin_2)*%
X42535000Y-91672500D03*
%TD*%
D10*
%TO.P,+TP_R14,1,1*%
%TO.N,Net-(SW13-A)*%
X134500000Y-85837500D03*
X134500000Y-88377500D03*
%TD*%
%TO.P,-TP_R11,1,1*%
%TO.N,Net-(SW10-A)*%
X133357500Y-56750000D03*
X133357500Y-59290000D03*
%TD*%
%TO.P,+TP_R13,1,1*%
%TO.N,Net-(SW12-A)*%
X134500000Y-78550000D03*
X134500000Y-81090000D03*
%TD*%
%TO.P,+TP_R15,1,1*%
%TO.N,Net-(SW14-A)*%
X134500000Y-92750000D03*
X134500000Y-95290000D03*
%TD*%
%TO.P,+TP_R2,1,1*%
%TO.N,Net-(SW1-B)*%
X50230000Y-65500000D03*
X52770000Y-65500000D03*
%TD*%
D16*
%TO.P,F1,1*%
%TO.N,Net-(F1-Pad1)*%
X40000000Y-54250000D03*
%TO.P,F1,2*%
%TO.N,Net-(J1-Pin_1)*%
X40000000Y-76750000D03*
%TD*%
D11*
%TO.P,R11,1*%
%TO.N,Net-(F3-Pad1)*%
X137357500Y-51440000D03*
%TO.P,R11,2*%
%TO.N,Net-(SW10-A)*%
X137357500Y-59060000D03*
%TD*%
D10*
%TO.P,+TP_R1,1,1*%
%TO.N,Net-(F1-Pad1)*%
X50230000Y-55500000D03*
X52770000Y-55500000D03*
%TD*%
D14*
%TO.P,SW_R7,1,A*%
%TO.N,Net-(SW6-A)*%
X103690000Y-65500000D03*
D15*
%TO.P,SW_R7,2,B*%
%TO.N,Net-(SW5-B)*%
X106190000Y-65500000D03*
%TO.P,SW_R7,3*%
%TO.N,N/C*%
X108690000Y-65500000D03*
%TO.P,SW_R7,4*%
X108690000Y-68800000D03*
%TO.P,SW_R7,5*%
X106190000Y-68800000D03*
%TO.P,SW_R7,6*%
X103690000Y-68800000D03*
%TD*%
D17*
%TO.P,SW_R1_R2,1,A*%
%TO.N,Net-(SW1-A)*%
X66642500Y-52500000D03*
D15*
%TO.P,SW_R1_R2,2,B*%
%TO.N,Net-(SW1-B)*%
X66642500Y-55000000D03*
%TO.P,SW_R1_R2,3*%
%TO.N,N/C*%
X66642500Y-57500000D03*
%TO.P,SW_R1_R2,4*%
X63342500Y-57500000D03*
%TO.P,SW_R1_R2,5*%
X63342500Y-55000000D03*
%TO.P,SW_R1_R2,6*%
X63342500Y-52500000D03*
%TD*%
D11*
%TO.P,R2,1*%
%TO.N,Net-(SW1-B)*%
X51190000Y-61000000D03*
%TO.P,R2,2*%
%TO.N,Net-(SW2-A)*%
X58810000Y-61000000D03*
%TD*%
D16*
%TO.P,F3,1*%
%TO.N,Net-(F3-Pad1)*%
X123000000Y-51000000D03*
%TO.P,F3,2*%
%TO.N,Net-(J3-Pin_1)*%
X123000000Y-73500000D03*
%TD*%
D10*
%TO.P,+TP_R3,1,1*%
%TO.N,Net-(SW2-B)*%
X50460000Y-75500000D03*
X53000000Y-75500000D03*
%TD*%
%TO.P,+TP_R10,1,1*%
%TO.N,Net-(SW9-A)*%
X99190000Y-96000000D03*
X99190000Y-98540000D03*
%TD*%
D14*
%TO.P,SW_R13,1,A*%
%TO.N,Net-(SW12-A)*%
X139500000Y-78000000D03*
D15*
%TO.P,SW_R13,2,B*%
%TO.N,Net-(SW11-B)*%
X142000000Y-78000000D03*
%TO.P,SW_R13,3*%
%TO.N,N/C*%
X144500000Y-78000000D03*
%TO.P,SW_R13,4*%
X144500000Y-81300000D03*
%TO.P,SW_R13,5*%
X142000000Y-81300000D03*
%TO.P,SW_R13,6*%
X139500000Y-81300000D03*
%TD*%
D11*
%TO.P,R9,1*%
%TO.N,Net-(J2-Pin_2)*%
X87380000Y-87000000D03*
%TO.P,R9,2*%
%TO.N,Net-(SW8-A)*%
X95000000Y-87000000D03*
%TD*%
%TO.P,R8,1*%
%TO.N,Net-(J2-Pin_2)*%
X87380000Y-77000000D03*
%TO.P,R8,2*%
%TO.N,Net-(SW7-A)*%
X95000000Y-77000000D03*
%TD*%
%TO.P,R4,1*%
%TO.N,Net-(SW3-B)*%
X51190000Y-81000000D03*
%TO.P,R4,2*%
%TO.N,Net-(SW4-A)*%
X58810000Y-81000000D03*
%TD*%
D17*
%TO.P,SW_R4_R5,1,A*%
%TO.N,Net-(SW4-A)*%
X66800000Y-84000000D03*
D15*
%TO.P,SW_R4_R5,2,B*%
%TO.N,Net-(SW4-B)*%
X66800000Y-86500000D03*
%TO.P,SW_R4_R5,3*%
%TO.N,N/C*%
X66800000Y-89000000D03*
%TO.P,SW_R4_R5,4*%
X63500000Y-89000000D03*
%TO.P,SW_R4_R5,5*%
X63500000Y-86500000D03*
%TO.P,SW_R4_R5,6*%
X63500000Y-84000000D03*
%TD*%
D11*
%TO.P,R14,1*%
%TO.N,Net-(J3-Pin_2)*%
X122190000Y-87607500D03*
%TO.P,R14,2*%
%TO.N,Net-(SW13-A)*%
X129810000Y-87607500D03*
%TD*%
%TO.P,R12,1*%
%TO.N,Net-(SW10-B)*%
X137357500Y-66440000D03*
%TO.P,R12,2*%
%TO.N,Net-(SW11-A)*%
X137357500Y-74060000D03*
%TD*%
D17*
%TO.P,SW_R3_R4,1,A*%
%TO.N,Net-(SW3-A)*%
X66642500Y-73500000D03*
D15*
%TO.P,SW_R3_R4,2,B*%
%TO.N,Net-(SW3-B)*%
X66642500Y-76000000D03*
%TO.P,SW_R3_R4,3*%
%TO.N,N/C*%
X66642500Y-78500000D03*
%TO.P,SW_R3_R4,4*%
X63342500Y-78500000D03*
%TO.P,SW_R3_R4,5*%
X63342500Y-76000000D03*
%TO.P,SW_R3_R4,6*%
X63342500Y-73500000D03*
%TD*%
D10*
%TO.P,+TP_R4,1,1*%
%TO.N,Net-(SW3-B)*%
X50730000Y-85500000D03*
X53270000Y-85500000D03*
%TD*%
D14*
%TO.P,SW_R10,1,A*%
%TO.N,Net-(SW9-A)*%
X103547500Y-95500000D03*
D15*
%TO.P,SW_R10,2,B*%
%TO.N,Net-(SW5-B)*%
X106047500Y-95500000D03*
%TO.P,SW_R10,3*%
%TO.N,N/C*%
X108547500Y-95500000D03*
%TO.P,SW_R10,4*%
X108547500Y-98800000D03*
%TO.P,SW_R10,5*%
X106047500Y-98800000D03*
%TO.P,SW_R10,6*%
X103547500Y-98800000D03*
%TD*%
D10*
%TO.P,-TP_R5,1,1*%
%TO.N,Net-(J1-Pin_2)*%
X56730000Y-95500000D03*
X59270000Y-95500000D03*
%TD*%
D11*
%TO.P,R1,1*%
%TO.N,Net-(F1-Pad1)*%
X51190000Y-51000000D03*
%TO.P,R1,2*%
%TO.N,Net-(SW1-A)*%
X58810000Y-51000000D03*
%TD*%
D18*
%TO.N,Net-(SW1-A)*%
X66000000Y-51000000D02*
X58810000Y-51000000D01*
X66642500Y-51642500D02*
X66000000Y-51000000D01*
X58810000Y-55460000D02*
X58770000Y-55500000D01*
X58810000Y-51000000D02*
X58810000Y-55460000D01*
X66642500Y-52500000D02*
X66642500Y-51642500D01*
X56230000Y-55500000D02*
X58770000Y-55500000D01*
%TO.N,Net-(F1-Pad1)*%
X42250000Y-52000000D02*
X40000000Y-54250000D01*
X50230000Y-55500000D02*
X50230000Y-51960000D01*
X45500000Y-52000000D02*
X42250000Y-52000000D01*
X50230000Y-51960000D02*
X51190000Y-51000000D01*
X49000000Y-55500000D02*
X45500000Y-52000000D01*
X50230000Y-55500000D02*
X52770000Y-55500000D01*
X50230000Y-55500000D02*
X49000000Y-55500000D01*
%TO.N,Net-(SW1-B)*%
X61500000Y-59500000D02*
X60500000Y-58500000D01*
X60500000Y-58500000D02*
X53690000Y-58500000D01*
X50230000Y-64270000D02*
X50230000Y-65500000D01*
X64000000Y-59500000D02*
X61500000Y-59500000D01*
X51190000Y-63310000D02*
X50230000Y-64270000D01*
X50230000Y-65500000D02*
X52770000Y-65500000D01*
X66642500Y-55000000D02*
X65000000Y-56642500D01*
X53690000Y-58500000D02*
X51190000Y-61000000D01*
X65000000Y-58500000D02*
X64000000Y-59500000D01*
X51190000Y-61000000D02*
X51190000Y-63310000D01*
X65000000Y-56642500D02*
X65000000Y-58500000D01*
%TO.N,Net-(SW2-A)*%
X66642500Y-62642500D02*
X65000000Y-61000000D01*
X66642500Y-63000000D02*
X66642500Y-62642500D01*
X65000000Y-61000000D02*
X58810000Y-61000000D01*
X58810000Y-65460000D02*
X58770000Y-65500000D01*
X56230000Y-65500000D02*
X58770000Y-65500000D01*
X58810000Y-61000000D02*
X58810000Y-65460000D01*
%TO.N,Net-(SW2-B)*%
X50500000Y-71690000D02*
X50500000Y-72000000D01*
X65000000Y-67142500D02*
X65000000Y-69500000D01*
X51190000Y-69310000D02*
X51190000Y-71000000D01*
X61500000Y-70000000D02*
X60000000Y-68500000D01*
X66642500Y-65500000D02*
X65000000Y-67142500D01*
X52000000Y-68500000D02*
X51190000Y-69310000D01*
X50500000Y-72000000D02*
X50460000Y-72040000D01*
X50460000Y-75500000D02*
X53000000Y-75500000D01*
X65000000Y-69500000D02*
X64500000Y-70000000D01*
X51190000Y-71000000D02*
X50500000Y-71690000D01*
X50460000Y-72040000D02*
X50460000Y-75500000D01*
X64500000Y-70000000D02*
X61500000Y-70000000D01*
X60000000Y-68500000D02*
X52000000Y-68500000D01*
%TO.N,Net-(SW3-A)*%
X58810000Y-75270000D02*
X59040000Y-75500000D01*
X56500000Y-75500000D02*
X59040000Y-75500000D01*
X58810000Y-71000000D02*
X58810000Y-75270000D01*
X59310000Y-71500000D02*
X58810000Y-71000000D01*
X66642500Y-73142500D02*
X65000000Y-71500000D01*
X66642500Y-73500000D02*
X66642500Y-73142500D01*
X65000000Y-71500000D02*
X59310000Y-71500000D01*
%TO.N,Net-(SW3-B)*%
X60000000Y-78500000D02*
X52500000Y-78500000D01*
X66642500Y-76000000D02*
X65000000Y-77642500D01*
X64500000Y-80500000D02*
X62000000Y-80500000D01*
X52500000Y-78500000D02*
X51190000Y-79810000D01*
X51190000Y-85040000D02*
X50730000Y-85500000D01*
X65000000Y-80000000D02*
X64500000Y-80500000D01*
X65000000Y-77642500D02*
X65000000Y-80000000D01*
X62000000Y-80500000D02*
X60000000Y-78500000D01*
X51190000Y-81000000D02*
X51190000Y-85040000D01*
X51190000Y-79810000D02*
X51190000Y-81000000D01*
X50730000Y-85500000D02*
X53270000Y-85500000D01*
%TO.N,Net-(SW4-A)*%
X65500000Y-82000000D02*
X59810000Y-82000000D01*
X59810000Y-82000000D02*
X58810000Y-81000000D01*
X58810000Y-81000000D02*
X58810000Y-85040000D01*
X66800000Y-84000000D02*
X66800000Y-83300000D01*
X66800000Y-83300000D02*
X65500000Y-82000000D01*
X58810000Y-85040000D02*
X59270000Y-85500000D01*
X56730000Y-85500000D02*
X59270000Y-85500000D01*
%TO.N,Net-(J1-Pin_2)*%
X47000000Y-97500000D02*
X48500000Y-99000000D01*
X48500000Y-99000000D02*
X55500000Y-99000000D01*
X58810000Y-95040000D02*
X59270000Y-95500000D01*
X56730000Y-97770000D02*
X56730000Y-95500000D01*
X47000000Y-96137500D02*
X47000000Y-97500000D01*
X55500000Y-99000000D02*
X56730000Y-97770000D01*
X42535000Y-91672500D02*
X47000000Y-96137500D01*
X56730000Y-95500000D02*
X59270000Y-95500000D01*
X58810000Y-91000000D02*
X58810000Y-95040000D01*
%TO.N,Net-(SW4-B)*%
X62500000Y-91500000D02*
X59500000Y-88500000D01*
X64500000Y-91500000D02*
X62500000Y-91500000D01*
X51190000Y-89310000D02*
X51190000Y-91000000D01*
X51190000Y-91000000D02*
X51190000Y-95040000D01*
X66000000Y-86500000D02*
X65170911Y-87329089D01*
X52000000Y-88500000D02*
X51190000Y-89310000D01*
X66800000Y-86500000D02*
X66000000Y-86500000D01*
X65170911Y-87329089D02*
X65170911Y-90829089D01*
X59500000Y-88500000D02*
X52000000Y-88500000D01*
X65170911Y-90829089D02*
X64500000Y-91500000D01*
X50730000Y-95500000D02*
X53270000Y-95500000D01*
X51190000Y-95040000D02*
X50730000Y-95500000D01*
%TO.N,Net-(SW5-A)*%
X99190000Y-55960000D02*
X99190000Y-58500000D01*
X103690000Y-55500000D02*
X99650000Y-55500000D01*
X99650000Y-55500000D02*
X99190000Y-55960000D01*
X99190000Y-55960000D02*
X96040000Y-55960000D01*
X96040000Y-55960000D02*
X95000000Y-57000000D01*
%TO.N,Net-(J2-Pin_2)*%
X86190000Y-51730000D02*
X86190000Y-55810000D01*
X87380000Y-87000000D02*
X87380000Y-97000000D01*
X84460000Y-97000000D02*
X87380000Y-97000000D01*
X83190000Y-93150000D02*
X83190000Y-95730000D01*
X81770000Y-91730000D02*
X83190000Y-93150000D01*
X83190000Y-95730000D02*
X84460000Y-97000000D01*
X87380000Y-87000000D02*
X87380000Y-77000000D01*
X88730000Y-51730000D02*
X86190000Y-51730000D01*
X86190000Y-55810000D02*
X87380000Y-57000000D01*
X87380000Y-67000000D02*
X87380000Y-77000000D01*
X87380000Y-57000000D02*
X87380000Y-67000000D01*
%TO.N,Net-(SW6-A)*%
X96270000Y-65730000D02*
X95000000Y-67000000D01*
X103690000Y-65500000D02*
X99420000Y-65500000D01*
X99190000Y-65730000D02*
X96270000Y-65730000D01*
X99190000Y-65730000D02*
X99190000Y-68270000D01*
X99420000Y-65500000D02*
X99190000Y-65730000D01*
%TO.N,Net-(SW7-A)*%
X99190000Y-75730000D02*
X99190000Y-78270000D01*
X99190000Y-75730000D02*
X96270000Y-75730000D01*
X99420000Y-75500000D02*
X99190000Y-75730000D01*
X96270000Y-75730000D02*
X95000000Y-77000000D01*
X103690000Y-75500000D02*
X99420000Y-75500000D01*
%TO.N,Net-(SW8-A)*%
X103690000Y-85500000D02*
X99690000Y-85500000D01*
X96000000Y-86000000D02*
X95000000Y-87000000D01*
X99690000Y-85500000D02*
X99190000Y-86000000D01*
X99190000Y-86000000D02*
X96000000Y-86000000D01*
X99190000Y-86000000D02*
X99190000Y-88540000D01*
%TO.N,Net-(SW9-A)*%
X96000000Y-96000000D02*
X95000000Y-97000000D01*
X99690000Y-95500000D02*
X99190000Y-96000000D01*
X99190000Y-96000000D02*
X96000000Y-96000000D01*
X99190000Y-96000000D02*
X99190000Y-98540000D01*
X103547500Y-95500000D02*
X99690000Y-95500000D01*
%TO.N,Net-(F3-Pad1)*%
X133357500Y-50980000D02*
X136897500Y-50980000D01*
X123020000Y-50980000D02*
X123000000Y-51000000D01*
X133357500Y-50980000D02*
X133357500Y-53520000D01*
X133357500Y-50980000D02*
X123020000Y-50980000D01*
X136897500Y-50980000D02*
X137357500Y-51440000D01*
%TO.N,Net-(SW10-A)*%
X146000000Y-53250000D02*
X146000000Y-50892500D01*
X133357500Y-59290000D02*
X133587500Y-59060000D01*
X140357500Y-51250000D02*
X140357500Y-57250000D01*
X138547500Y-59060000D02*
X137357500Y-59060000D01*
X133357500Y-56750000D02*
X133357500Y-59290000D01*
X133587500Y-59060000D02*
X137357500Y-59060000D01*
X140357500Y-57250000D02*
X138547500Y-59060000D01*
X145357500Y-50250000D02*
X141357500Y-50250000D01*
X141357500Y-50250000D02*
X140357500Y-51250000D01*
X146000000Y-50892500D02*
X145357500Y-50250000D01*
%TO.N,Net-(SW10-B)*%
X147857500Y-56250000D02*
X147857500Y-60750000D01*
X147357500Y-55750000D02*
X147857500Y-56250000D01*
X133357500Y-65980000D02*
X133357500Y-68520000D01*
X146000000Y-55750000D02*
X147357500Y-55750000D01*
X147857500Y-60750000D02*
X146357500Y-62250000D01*
X137357500Y-64250000D02*
X137357500Y-66440000D01*
X146357500Y-62250000D02*
X139357500Y-62250000D01*
X139357500Y-62250000D02*
X137357500Y-64250000D01*
X136897500Y-65980000D02*
X137357500Y-66440000D01*
X133357500Y-65980000D02*
X136897500Y-65980000D01*
%TO.N,Net-(SW11-A)*%
X137127500Y-74290000D02*
X137357500Y-74060000D01*
X133357500Y-74290000D02*
X137127500Y-74290000D01*
X140357500Y-64250000D02*
X140357500Y-71060000D01*
X146142500Y-67250000D02*
X146142500Y-64535000D01*
X133357500Y-71750000D02*
X133357500Y-74290000D01*
X140357500Y-71060000D02*
X137357500Y-74060000D01*
X146142500Y-64535000D02*
X145857500Y-64250000D01*
X145857500Y-64250000D02*
X140357500Y-64250000D01*
%TO.N,Net-(J3-Pin_2)*%
X136500000Y-107500000D02*
X126000000Y-107500000D01*
X123960000Y-101500000D02*
X126500000Y-101500000D01*
X122190000Y-99730000D02*
X122190000Y-94250000D01*
X137535000Y-106465000D02*
X136500000Y-107500000D01*
X122190000Y-87607500D02*
X122190000Y-94250000D01*
X123960000Y-105460000D02*
X123960000Y-101500000D01*
X126000000Y-107500000D02*
X123960000Y-105460000D01*
X122190000Y-80050000D02*
X122190000Y-87607500D01*
X137535000Y-104172500D02*
X137535000Y-106465000D01*
X122190000Y-99730000D02*
X123960000Y-101500000D01*
%TO.N,Net-(SW12-A)*%
X134500000Y-78550000D02*
X131310000Y-78550000D01*
X139500000Y-78000000D02*
X135050000Y-78000000D01*
X131310000Y-78550000D02*
X129810000Y-80050000D01*
X134500000Y-78550000D02*
X134500000Y-81090000D01*
X135050000Y-78000000D02*
X134500000Y-78550000D01*
%TO.N,Net-(SW13-A)*%
X139500000Y-85357500D02*
X134980000Y-85357500D01*
X134500000Y-85837500D02*
X131580000Y-85837500D01*
X134980000Y-85357500D02*
X134500000Y-85837500D01*
X131580000Y-85837500D02*
X129810000Y-87607500D01*
X134500000Y-85837500D02*
X134500000Y-88377500D01*
%TO.N,Net-(SW14-A)*%
X134500000Y-92750000D02*
X134500000Y-95290000D01*
X134750000Y-92500000D02*
X134500000Y-92750000D01*
X139500000Y-92500000D02*
X134750000Y-92500000D01*
X131310000Y-92750000D02*
X129810000Y-94250000D01*
X134500000Y-92750000D02*
X131310000Y-92750000D01*
%TO.N,Net-(SW5-B)*%
X112690000Y-61730000D02*
X112690000Y-53730000D01*
X112690000Y-89730000D02*
X111190000Y-91230000D01*
X112690000Y-71730000D02*
X112690000Y-81730000D01*
X107190000Y-71730000D02*
X112690000Y-71730000D01*
X81190000Y-48230000D02*
X79190000Y-50230000D01*
X106190000Y-65500000D02*
X106190000Y-63230000D01*
X111690000Y-52730000D02*
X106690000Y-52730000D01*
X106190000Y-63230000D02*
X107690000Y-61730000D01*
X111190000Y-91230000D02*
X107190000Y-91230000D01*
X92190000Y-48230000D02*
X81190000Y-48230000D01*
X106190000Y-85500000D02*
X106190000Y-82730000D01*
X112690000Y-81730000D02*
X112690000Y-89730000D01*
X107690000Y-61730000D02*
X112690000Y-61730000D01*
X107190000Y-81730000D02*
X112690000Y-81730000D01*
X93190000Y-51730000D02*
X93190000Y-49230000D01*
X112690000Y-61730000D02*
X112690000Y-71730000D01*
X107420000Y-50230000D02*
X104690000Y-50230000D01*
X104690000Y-50230000D02*
X102190000Y-52730000D01*
X106047500Y-92372500D02*
X106047500Y-95500000D01*
X107190000Y-91230000D02*
X106047500Y-92372500D01*
X93190000Y-49230000D02*
X92190000Y-48230000D01*
X94190000Y-52730000D02*
X93190000Y-51730000D01*
X106690000Y-52730000D02*
X102190000Y-52730000D01*
X112690000Y-53730000D02*
X111690000Y-52730000D01*
X106190000Y-75500000D02*
X106190000Y-72730000D01*
X102190000Y-52730000D02*
X94190000Y-52730000D01*
X106190000Y-82730000D02*
X107190000Y-81730000D01*
X79190000Y-50230000D02*
X79190000Y-56480000D01*
X106190000Y-72730000D02*
X107190000Y-71730000D01*
X107420000Y-50230000D02*
X109960000Y-50230000D01*
%TO.N,Net-(SW11-B)*%
X142000000Y-92500000D02*
X144000000Y-90500000D01*
X144000000Y-76000000D02*
X148500000Y-76000000D01*
X146270000Y-101500000D02*
X146270000Y-99730000D01*
X148500000Y-83500000D02*
X148500000Y-90500000D01*
X146142500Y-69750000D02*
X148500000Y-72107500D01*
X144000000Y-90500000D02*
X148500000Y-90500000D01*
X148500000Y-72107500D02*
X148500000Y-72500000D01*
X142000000Y-78000000D02*
X144000000Y-76000000D01*
X148500000Y-90500000D02*
X148500000Y-97500000D01*
X143730000Y-101500000D02*
X146270000Y-101500000D01*
X146270000Y-99730000D02*
X148500000Y-97500000D01*
X148500000Y-76000000D02*
X148500000Y-83500000D01*
X143857500Y-83500000D02*
X148500000Y-83500000D01*
X148500000Y-72500000D02*
X148500000Y-76000000D01*
X142000000Y-85357500D02*
X143857500Y-83500000D01*
%TO.N,Net-(J1-Pin_1)*%
X39827500Y-76922500D02*
X40000000Y-76750000D01*
X40000000Y-76750000D02*
X40000000Y-79000000D01*
X37455000Y-81545000D02*
X37455000Y-91672500D01*
X40000000Y-79000000D02*
X37455000Y-81545000D01*
%TO.N,Net-(J2-Pin_1)*%
X79190000Y-81230000D02*
X76690000Y-83730000D01*
X79190000Y-78980000D02*
X79190000Y-81230000D01*
X78517500Y-79652500D02*
X79190000Y-78980000D01*
X76690000Y-83730000D02*
X76690000Y-91730000D01*
%TO.N,Net-(J3-Pin_1)*%
X132455000Y-101455000D02*
X125500000Y-94500000D01*
X125500000Y-94500000D02*
X125500000Y-76000000D01*
X125500000Y-76000000D02*
X123000000Y-73500000D01*
X132455000Y-104172500D02*
X132455000Y-101455000D01*
%TD*%
M02*
